# xmcd CD database file
#
# Track frame offsets:
#	150
#	40845
#	85677
#	94987
#	131589
#	170022
#	209066
#	232582
#	286893
#
# Disc length: 3986 seconds
#
# Revision: 1
# Processed by: cddbd v1.5.2PL0 Copyright (c) Steve Scherf et al.
# Submitted via: CDex 1.51
#
DISCID=760f9009
DTITLE=Алексей Козлов и ансамбль "Арсенал" - Линия Жизни (Живой концерт в клубе "Форте")
DYEAR=2003
DGENRE=Jazz
TTITLE0=Пролог
TTITLE1=Посвящение С. Рахманинову
TTITLE2=Памяти Н. Заболоцкого
TTITLE3=Сюита в фа-миноре
TTITLE4=Последний взгляд
TTITLE5=Корни лотоса
TTITLE6=Искушение
TTITLE7=Эпилог - Джазовая свобода
TTITLE8=Ностальгия
EXTD=YEAR: 2003
EXTT0=
EXTT1=
EXTT2=
EXTT3=
EXTT4=
EXTT5=
EXTT6=
EXTT7=
EXTT8=
PLAYORDER=
